#!OML:ASF F:\VICON\USERDATA\INSTALL\rory3\rory3.ASF
:FULLY-SPECIFIED
:DEGREES
694
root -3.85469 17.9705 -1.5241 7.58694 34.7318 2.77024
lowerback 4.83774 -2.88317 0.0811345
upperback 1.29141 -3.77055 2.8899
thorax -1.18925 -1.8785 3.13924
lowerneck -20.535 -8.90996 -12.2963
upperneck 17.4156 -9.88255 6.19883
head 9.83605 -4.73757 2.66572
rclavicle 5.66536e-014 -2.22639e-014
rhumerus -31.52 -17.8447 -73.3895
rradius 22.1688
rwrist 27.6675
rhand -25.4609 -4.76797
rfingers 7.12502
rthumb 1.0664 -34.745
lclavicle 5.66536e-014 -2.22639e-014
lhumerus -28.3365 1.35746 84.9056
lradius 37.2219
lwrist -7.91696
lhand -8.28248 28.4031
lfingers 7.12502
lthumb 17.637 57.6232
rfemur -18.8882 5.29413 20.7542
rtibia 31.338
rfoot -16.0741 -5.66133
rtoes 14.1805
lfemur -10.8109 1.17735 -12.1782
ltibia 31.996
lfoot -9.42982 7.59637
ltoes -21.1387
695
root -3.8637 17.9627 -1.54436 7.65516 35.011 2.78494
lowerback 4.90697 -2.90343 0.0854799
upperback 1.32384 -3.79593 2.9041
thorax -1.19244 -1.89113 3.15575
lowerneck -20.5747 -8.94433 -12.3611
upperneck 17.4662 -9.9091 6.20842
head 9.86787 -4.75226 2.67306
rclavicle 3.65764e-014 1.74931e-014
rhumerus -31.1527 -17.4132 -73.7099
rradius 22.4864
rwrist 27.223
rhand -25.5521 -4.61512
rfingers 7.12502
rthumb 0.978333 -34.5926
lclavicle 3.65764e-014 1.74931e-014
lhumerus -28.1451 0.957831 85.0522
lradius 37.6426
lwrist -7.80524
lhand -8.12053 28.5289
lfingers 7.12502
lthumb 17.7929 57.7349
rfemur -19.1183 5.06356 20.7481
rtibia 31.558
rfoot -16.1806 -5.70556
rtoes 13.8617
lfemur -11.0013 1.97497 -12.5525
ltibia 32.6553
lfoot -9.93184 7.40761
ltoes -21.2104
696
root -3.87352 17.9551 -1.56228 7.62387 35.3049 2.68518
lowerback 4.99824 -2.90607 0.101868
upperback 1.32538 -3.79496 2.97637
thorax -1.23787 -1.89004 3.22649
lowerneck -20.4315 -8.95503 -12.3939
upperneck 17.4959 -9.91276 6.11769
head 9.85046 -4.76953 2.64964
rclavicle 1.47101e-014 7.15625e-015
rhumerus -30.8795 -16.9488 -74.0097
rradius 22.9677
rwrist 26.3338
rhand -25.396 -4.69194
rfingers 7.12502
rthumb 1.12906 -34.6687
lclavicle 1.47101e-014 7.15625e-015
lhumerus -28.0467 0.536731 85.2484
lradius 38.0564
lwrist -7.66015
lhand -8.48809 28.3186
lfingers 7.12502
lthumb 17.4392 57.5563
rfemur -19.3053 4.81771 20.8672
rtibia 31.7702
rfoot -16.2215 -5.81696
rtoes 13.432
lfemur -11.1778 2.80924 -12.8033
ltibia 33.3369
lfoot -10.2737 7.15284
ltoes -21.4885
697
root -3.88171 17.9494 -1.58135 7.65209 35.6353 2.65018
lowerback 5.08107 -2.92529 0.096142
upperback 1.29125 -3.81706 3.03067
thorax -1.31381 -1.90005 3.29322
lowerneck -20.2251 -8.96805 -12.3629
upperneck 17.5002 -9.93355 5.97045
head 9.80767 -4.79795 2.59584
rclavicle 5.62561e-014 -2.54444e-014
rhumerus -30.6345 -16.3999 -74.3301
rradius 23.5806
rwrist 25.0128
rhand -25.28 -5.02909
rfingers 7.12502
rthumb 1.24115 -35.0052
lclavicle 5.62561e-014 -2.54444e-014
lhumerus -27.91 0.276427 85.4191
lradius 38.4036
lwrist -7.83295
lhand -8.69785 28.421
lfingers 7.12502
lthumb 17.2373 57.6765
rfemur -19.5001 4.62158 20.9082
rtibia 31.9597
rfoot -16.2706 -5.97481
rtoes 13.6386
lfemur -11.3576 3.5573 -13.1241
ltibia 34.0068
lfoot -10.5838 6.90676
ltoes -21.7876
698
root -3.89124 17.9425 -1.60052 7.63224 35.9538 2.56314
lowerback 5.167 -2.93867 0.117289
upperback 1.29344 -3.8301 3.09839
thorax -1.35541 -1.90596 3.3572
lowerneck -20.143 -8.99609 -12.3574
upperneck 17.4808 -9.96169 5.87526
head 9.78341 -4.82272 2.55939
rclavicle 1.2921e-014 -3.26007e-014
rhumerus -30.3548 -15.9129 -74.6154
rradius 24.2142
rwrist 24.1347
rhand -25.5859 -5.45792
rfingers 7.12502
rthumb 0.945662 -35.4356
lclavicle 1.2921e-014 -3.26007e-014
lhumerus -27.6661 0.0466608 85.5676
lradius 38.6699
lwrist -7.93825
lhand -8.51084 28.6706
lfingers 7.12502
lthumb 17.4173 57.9103
rfemur -19.6886 4.44126 20.9989
rtibia 32.1422
rfoot -16.3264 -6.12404
rtoes 13.726
lfemur -11.5049 4.20658 -13.411
ltibia 34.6332
lfoot -10.9178 6.82572
ltoes -21.6094
699
root -3.90253 17.9357 -1.61953 7.62362 36.2452 2.46654
lowerback 5.24843 -2.95365 0.127193
upperback 1.29825 -3.84623 3.15465
thorax -1.39166 -1.91348 3.41552
lowerneck -20.173 -9.01583 -12.4501
upperneck 17.5049 -9.97382 5.94514
head 9.8077 -4.82612 2.59497
rclavicle 1.21259e-014 2.38542e-015
rhumerus -30.0634 -15.2531 -74.9696
rradius 24.9119
rwrist 23.4123
rhand -25.7502 -5.52819
rfingers 7.12502
rthumb 0.787034 -35.5065
lclavicle 1.21259e-014 2.38542e-015
lhumerus -27.4896 -0.284617 85.6849
lradius 39.0553
lwrist -7.91579
lhand -8.3041 28.841
lfingers 7.12502
lthumb 17.6162 58.0629
rfemur -19.9018 4.39352 21.0824
rtibia 32.3316
rfoot -16.4625 -6.2509
rtoes 13.8855
lfemur -11.6255 4.79546 -13.6822
ltibia 35.2261
lfoot -11.1046 7.07945
ltoes -21.3001
700
root -3.90842 17.9305 -1.64015 7.72954 36.5795 2.46016
lowerback 5.21838 -3.00199 0.141581
upperback 1.28221 -3.90936 3.18004
thorax -1.38697 -1.94494 3.43611
lowerneck -20.29 -9.05277 -12.5641
upperneck 17.6944 -9.99715 6.0073
head 9.90828 -4.83588 2.6257
rclavicle 3.73715e-014 -1.59028e-014
rhumerus -29.7799 -14.5028 -75.3365
rradius 25.7087
rwrist 22.577
rhand -25.7509 -5.485
rfingers 7.12502
rthumb 0.786362 -35.4633
lclavicle 3.73715e-014 -1.59028e-014
lhumerus -27.3269 -0.526239 85.7749
lradius 39.4351
lwrist -7.99066
lhand -8.18533 28.7745
lfingers 7.12502
lthumb 17.7305 57.9861
rfemur -20.1624 4.19894 21.0609
rtibia 32.5184
rfoot -16.5517 -6.30021
rtoes 13.7373
lfemur -11.7732 5.34369 -14.0445
ltibia 35.8221
lfoot -11.2262 7.52706
ltoes -20.9172
701
root -3.91566 17.9224 -1.65863 7.76462 36.8537 2.39932
lowerback 5.17215 -3.00476 0.134208
upperback 1.30473 -3.91425 3.20449
thorax -1.33551 -1.94793 3.46201
lowerneck -20.4003 -9.14125 -12.5241
upperneck 17.8231 -10.1023 5.92022
head 9.97671 -4.88934 2.56674
rclavicle -2.94201e-014 4.77083e-015
rhumerus -29.4864 -13.8786 -75.66
rradius 26.5986
rwrist 21.8126
rhand -25.8536 -5.61319
rfingers 7.12502
rthumb 0.68713 -35.5918
lclavicle -2.94201e-014 4.77083e-015
lhumerus -27.0881 -0.824472 85.8651
lradius 39.7756
lwrist -8.05051
lhand -8.09201 28.8621
lfingers 7.12502
lthumb 17.8203 58.0656
rfemur -20.3856 4.05518 21.1031
rtibia 32.7089
rfoot -16.5486 -6.33573
rtoes 13.1806
lfemur -11.8542 5.90086 -14.3496
ltibia 36.4158
lfoot -11.5698 7.66975
ltoes -20.3557
702
root -3.92429 17.9123 -1.67602 7.65042 37.1836 2.13834
lowerback 5.1494 -2.99445 0.274971
upperback 1.35475 -3.89274 3.26098
thorax -1.27806 -1.93775 3.43717
lowerneck -20.5499 -9.26926 -12.529
upperneck 17.8998 -10.2618 5.9217
head 10.0465 -4.95962 2.53528
rclavicle 9.99887e-014 -3.65764e-014
rhumerus -29.0915 -13.3803 -75.9352
rradius 27.4232
rwrist 21.2222
rhand -25.9393 -5.7957
rfingers 7.12502
rthumb 0.604345 -35.7746
lclavicle 9.99887e-014 -3.65764e-014
lhumerus -26.7643 -1.24164 85.9449
lradius 40.0642
lwrist -7.93503
lhand -8.13619 28.7586
lfingers 7.12502
lthumb 17.7778 57.966
rfemur -20.5574 3.97118 21.3408
rtibia 32.8948
rfoot -16.5773 -6.51328
rtoes 12.8648
lfemur -11.941 6.45059 -14.4565
ltibia 37.0006
lfoot -11.8917 7.50715
ltoes -20.5475
703
root -3.93075 17.9053 -1.69721 7.66898 37.5659 2.06669
lowerback 5.13998 -3.04033 0.363981
upperback 1.39026 -3.94997 3.24705
thorax -1.24007 -1.96665 3.37433
lowerneck -20.806 -9.37746 -12.5205
upperneck 18.0312 -10.3969 5.96734
head 10.1543 -5.01044 2.51762
rclavicle 9.30312e-014 -3.97569e-014
rhumerus -28.6676 -12.8793 -76.2252
rradius 28.2836
rwrist 20.7985
rhand -26.0505 -5.9984
rfingers 7.12502
rthumb 0.496957 -35.9776
lclavicle 9.30312e-014 -3.97569e-014
lhumerus -26.5137 -1.64236 85.9229
lradius 40.419
lwrist -7.64827
lhand -8.26914 28.4259
lfingers 7.12502
lthumb 17.6499 57.6449
rfemur -20.7511 3.64619 21.4087
rtibia 33.0543
rfoot -16.5533 -6.56367
rtoes 12.6654
lfemur -12.0927 6.9167 -14.7519
ltibia 37.5874
lfoot -12.0721 7.51885
ltoes -21.4363
704
root -3.937 17.9008 -1.71769 7.70721 37.8985 2.17239
lowerback 5.18858 -3.09047 0.206459
upperback 1.45513 -4.02478 3.26852
thorax -1.18372 -2.00485 3.48919
lowerneck -20.9993 -9.46862 -12.5452
upperneck 18.0497 -10.4868 5.95511
head 10.2046 -5.05024 2.4947
rclavicle 7.5737e-014 -1.59028e-015
rhumerus -28.2115 -12.334 -76.3831
rradius 29.2262
rwrist 20.4554
rhand -25.9778 -5.9615
rfingers 7.12502
rthumb 0.567219 -35.9405
lclavicle 7.5737e-014 -1.59028e-015
lhumerus -26.3736 -1.88027 85.9716
lradius 40.9615
lwrist -7.52472
lhand -8.3153 28.2564
lfingers 7.12502
lthumb 17.6054 57.4793
rfemur -20.8488 3.29486 21.3151
rtibia 33.1883
rfoot -16.541 -6.49149
rtoes 12.9466
lfemur -12.0791 7.27372 -15.1662
ltibia 38.159
lfoot -12.3922 7.57115
ltoes -21.1751
705
root -3.9428 17.8971 -1.74123 7.65216 38.3378 2.10528
lowerback 5.21346 -3.13156 0.235071
upperback 1.5188 -4.07714 3.3176
thorax -1.12734 -2.03158 3.5259
lowerneck -21.1479 -9.6092 -12.6241
upperneck 18.0284 -10.6487 6.01012
head 10.2472 -5.11967 2.4927
rclavicle 9.54166e-014 2.38542e-015
rhumerus -27.8224 -11.9924 -76.4549
rradius 30.2673
rwrist 20.1954
rhand -25.9579 -5.87538
rfingers 7.12502
rthumb 0.586406 -35.8543
lclavicle 9.54166e-014 2.38542e-015
lhumerus -26.175 -2.25035 86.0626
lradius 41.5099
lwrist -7.56315
lhand -8.18749 28.3401
lfingers 7.12502
lthumb 17.7284 57.552
rfemur -20.9416 3.03801 21.3568
rtibia 33.3097
rfoot -16.6735 -6.55762
rtoes 13.7224
lfemur -12.0844 7.56732 -15.3994
ltibia 38.7023
lfoot -12.69 7.55219
ltoes -20.5561
706
root -3.94919 17.8912 -1.76797 7.64566 38.837 1.9858
lowerback 5.20257 -3.19037 0.334992
upperback 1.54173 -4.14938 3.36032
thorax -1.09734 -2.06769 3.51662
lowerneck -21.2964 -9.73048 -12.7005
upperneck 17.9755 -10.7925 6.10558
head 10.279 -5.17589 2.50787
rclavicle 8.36883e-014 -1.43125e-014
rhumerus -27.4183 -11.7163 -76.5036
rradius 31.36
rwrist 19.9296
rhand -26.2052 -5.6325
rfingers 7.12502
rthumb 0.347541 -35.612
lclavicle 8.36883e-014 -1.43125e-014
lhumerus -25.8768 -2.70711 86.1225
lradius 41.9535
lwrist -7.62901
lhand -8.05467 28.229
lfingers 7.12502
lthumb 17.8562 57.4292
rfemur -21.1146 2.8685 21.4332
rtibia 33.427
rfoot -16.8182 -6.75807
rtoes 14.1281
lfemur -12.2344 7.8124 -15.615
ltibia 39.2311
lfoot -12.7681 7.61143
ltoes -21.2341
